<?xml version="1.0" encoding="UTF-8"?>
<svg xmlns="http://www.w3.org/2000/svg" xmlns:xlink="http://www.w3.org/1999/xlink" width="100px" height="33px" viewBox="0 0 100 33" version="1.1">
<g id="surface1">
<path style=" stroke:none;fill-rule:nonzero;fill:rgb(83.137256%,83.137256%,83.137256%);fill-opacity:1;" d="M 0 2.695312 L 0 32.582031 L 0.300781 32.886719 L 5.121094 32.886719 L 5.421875 32.582031 L 5.421875 21.660156 L 6.023438 21.203125 L 10.992188 21.203125 L 12.046875 22.417969 L 12.199219 23.328125 L 12.953125 24.085938 L 14.609375 27.574219 L 17.921875 32.734375 L 23.945312 32.582031 L 22.589844 30.914062 L 16.867188 21.050781 L 19.730469 19.535156 L 21.535156 18.015625 L 22.589844 16.195312 L 23.34375 13.617188 L 23.34375 9.824219 L 21.6875 6.183594 L 18.375 3.453125 L 17.019531 3.300781 L 15.511719 2.542969 Z M 0 2.695312 "/>
<path style=" stroke:none;fill-rule:nonzero;fill:rgb(98.431373%,98.431373%,98.823529%);fill-opacity:1;" d="M 68.375 0.113281 L 68.074219 0.417969 L 68.222656 28.484375 L 67.921875 29.242188 L 68.222656 32.734375 L 73.492188 32.582031 L 73.492188 22.871094 L 74.246094 22.570312 L 82.230469 32.886719 L 87.953125 32.886719 L 88.253906 32.582031 L 87.5 31.824219 L 87.5 31.214844 L 79.519531 21.203125 L 80.875 19.078125 L 87.953125 11.039062 L 81.324219 11.039062 L 73.945312 19.6875 L 73.492188 19.230469 L 73.34375 0.113281 Z M 68.375 0.113281 "/>
<path style=" stroke:none;fill-rule:nonzero;fill:rgb(98.431373%,98.431373%,98.431373%);fill-opacity:1;" d="M 42.621094 5.121094 L 42.320312 5.425781 L 42.320312 10.429688 L 41.867188 10.886719 L 39.308594 10.886719 L 39.007812 11.191406 L 39.308594 15.4375 L 41.867188 15.4375 L 42.46875 16.042969 L 42.621094 29.546875 L 43.675781 31.214844 L 45.933594 32.734375 L 50.902344 32.886719 L 51.957031 31.976562 L 51.808594 28.332031 L 49.097656 28.332031 L 48.042969 27.421875 L 47.441406 26.210938 L 47.441406 15.894531 L 47.890625 15.4375 L 48.644531 15.285156 L 52.109375 15.285156 L 51.957031 10.886719 L 48.042969 10.886719 L 47.441406 10.429688 L 47.289062 5.273438 Z M 42.621094 5.121094 "/>
<path style=" stroke:none;fill-rule:nonzero;fill:rgb(72.156864%,26.274511%,60.392159%);fill-opacity:1;" d="M 97.136719 19.988281 L 96.535156 19.6875 L 96.085938 19.6875 L 95.332031 19.078125 L 94.730469 18.925781 L 93.222656 18.925781 L 92.46875 19.230469 L 91.265625 19.230469 L 90.511719 19.6875 L 90.058594 19.6875 L 89.457031 19.988281 L 88.703125 20.597656 L 87.953125 20.597656 L 87.199219 20.898438 L 86.597656 21.355469 L 85.84375 21.507812 L 85.242188 22.113281 L 84.789062 22.265625 L 83.734375 22.265625 L 82.980469 22.871094 L 81.777344 23.328125 L 81.777344 23.628906 L 82.53125 24.84375 L 83.585938 25.753906 L 83.585938 26.058594 L 84.335938 26.816406 L 84.488281 27.273438 L 85.242188 28.03125 L 85.390625 28.484375 L 86.746094 30.003906 L 86.898438 30.457031 L 88.101562 31.519531 L 89.15625 31.367188 L 89.910156 31.824219 L 91.113281 31.976562 L 91.265625 32.125 L 92.320312 31.976562 L 93.375 32.125 L 95.03125 31.976562 L 96.535156 31.367188 L 97.136719 30.761719 L 97.890625 30.457031 L 98.34375 30.003906 L 98.34375 29.699219 L 99.097656 28.941406 L 99.246094 28.332031 L 99.847656 27.726562 L 100 25.753906 L 99.847656 23.78125 L 99.246094 23.023438 L 98.945312 21.808594 Z M 97.136719 19.988281 "/>
<path style=" stroke:none;fill-rule:nonzero;fill:rgb(98.823529%,98.823529%,98.823529%);fill-opacity:1;" d="M 56.625 11.039062 L 56.777344 32.734375 L 61.746094 32.886719 L 62.046875 32.429688 L 61.898438 30.609375 L 62.199219 30.152344 L 62.199219 29.242188 L 61.898438 28.636719 L 62.046875 11.191406 L 61.746094 10.886719 Z M 56.625 11.039062 "/>
<path style=" stroke:none;fill-rule:nonzero;fill:rgb(99.215686%,99.215686%,99.215686%);fill-opacity:1;" d="M 29.519531 11.039062 L 29.667969 32.886719 L 34.335938 32.886719 L 34.789062 32.734375 L 34.636719 10.886719 Z M 29.519531 11.039062 "/>
<path style=" stroke:none;fill-rule:nonzero;fill:rgb(97.647059%,97.647059%,97.647059%);fill-opacity:1;" d="M 30.875 1.023438 L 30.269531 1.632812 L 29.820312 1.785156 L 29.519531 2.085938 L 29.367188 2.390625 L 29.367188 2.996094 L 28.914062 3.605469 L 28.914062 4.363281 L 29.367188 4.96875 L 29.367188 5.578125 L 29.519531 6.03125 L 29.820312 6.335938 L 30.269531 6.488281 L 30.875 7.09375 L 33.433594 7.09375 L 33.734375 6.941406 L 34.1875 6.488281 L 34.636719 6.335938 L 34.789062 6.183594 L 34.941406 5.878906 L 34.941406 5.425781 L 35.242188 5.121094 L 35.390625 4.816406 L 35.542969 4.210938 L 35.542969 3.757812 L 34.941406 2.695312 L 34.636719 1.785156 L 34.035156 1.632812 L 33.433594 1.023438 Z M 30.875 1.023438 "/>
<path style=" stroke:none;fill-rule:nonzero;fill:rgb(97.647059%,97.647059%,97.647059%);fill-opacity:1;" d="M 58.132812 1.023438 L 57.832031 1.175781 L 57.078125 1.785156 L 56.777344 2.085938 L 56.625 2.390625 L 56.324219 3.300781 L 56.175781 4.058594 L 56.476562 5.425781 L 56.777344 6.183594 L 57.230469 6.335938 L 57.832031 6.941406 L 58.132812 7.09375 L 60.542969 7.09375 L 60.84375 6.941406 L 61.296875 6.488281 L 61.746094 6.335938 L 62.046875 6.03125 L 62.5 4.816406 L 62.652344 4.210938 L 62.652344 3.605469 L 62.046875 2.542969 L 62.046875 2.085938 L 61.746094 1.785156 L 61.445312 1.632812 L 61.144531 1.632812 L 60.542969 1.023438 Z M 58.132812 1.023438 "/>
<path style=" stroke:none;fill-rule:nonzero;fill:rgb(67.058825%,21.176471%,70.19608%);fill-opacity:1;" d="M 73.945312 26.359375 L 73.945312 29.851562 L 74.246094 29.699219 L 74.847656 29.851562 L 76.054688 30.304688 L 77.257812 30.457031 L 79.367188 30.609375 L 79.96875 30.304688 L 79.367188 29.699219 L 79.21875 29.242188 L 78.613281 28.484375 L 78.3125 28.183594 L 78.164062 28.183594 L 77.710938 27.726562 L 77.710938 27.421875 L 77.558594 27.121094 L 76.054688 25.449219 L 75.753906 25.753906 L 75.601562 25.753906 L 75 26.359375 L 74.546875 26.359375 L 74.398438 26.511719 Z M 73.945312 26.359375 "/>
<path style=" stroke:none;fill-rule:nonzero;fill:rgb(45.09804%,17.254902%,52.549022%);fill-opacity:1;" d="M 62.199219 30.304688 L 62.5 30.609375 L 63.253906 30.609375 L 63.855469 30.457031 L 64.15625 30.304688 L 64.757812 29.851562 L 65.511719 29.699219 L 67.769531 29.546875 L 67.921875 28.941406 L 66.71875 28.789062 L 62.652344 28.789062 L 62.347656 28.941406 Z M 62.199219 30.304688 "/>
</g>
</svg>
